Patient4_TMGait_0pt5_02_right_41_EMG.mot
version=1
nRows=17
nColumns=33
inDegrees=no
endheader
time	1LAddLong	2LGlutMax	3LGlutMed	4LIliopsoas	5LSemiMemb	6LBicFemLong	7LRecFem	8LVastMed	9LVastLat	10LGasMed	11LTibAnt	12lTibPost	13LPeroneusLong	14LSol	15LExtDigLong	16LFlexDigLong	17RAddLong	18RGlutMax	19RGlutMed	20RIliopsoas	21RSemiMemb	22RBicFemLong	23RRecFem	24RVastMed	25RVastLat	26RGasMed	27RTibAnt	28RTibPost	29RPeroneusLong	30RSol	31RExtDigLong	32RFlexDigLong
54.01	-0.016022	0.10346	0.037537	-0.007782	0.023193	-0.081482	-0.012817	-0.003052	-0.020142	0.012817	-0.5191	0.005646	0.061951	-0.042725	-0.94025	-0.019379	0.010529	-1.5152	-0.86517	-0.02594	0.079651	-0.20599	0.01297	-0.24841	-0.19012	-0.001526	0.031128	0.033417	-0.027008	-0.37643	-0.00412	-0.020905
54.011	-0.014648	0.056763	0.040436	0.001831	0.019226	-0.060577	0.00412	-0.001526	-0.004883	0.071564	-0.3952	0.010223	-0.039825	-0.1532	-0.62836	-0.018463	0.000763	-1.8173	-0.7431	0.001831	-0.018921	-0.36652	0.011902	-0.63934	-0.14008	-0.006714	0.052948	-0.048676	-0.22873	-0.0177	0.005188	-0.004883
54.012	-0.004425	0.023804	0.031128	0.015869	0.00351	-0.037079	0.011139	0.001221	0.007019	0.082703	-0.32486	0.005798	-0.10849	-0.15976	-0.65628	-0.005951	-0.019379	-1.9266	-0.86227	0.027313	-0.077667	-0.2771	-0.070953	-0.69473	-0.065613	0.08667	0.038605	-0.17517	-0.26871	0.27176	0.001984	-0.013428
54.013	-0.068817	0.015717	0.037537	0.00412	0.008087	-0.072937	0.015564	-0.00061	0.015869	0.073853	-0.26459	0.014038	-0.054779	-0.13306	-0.4895	-0.014496	-0.014191	-1.9681	-1.6589	0.057678	0.14832	0.17777	-0.058136	-0.65475	0.040588	0.063934	0.014343	-0.2092	-0.45456	0.69473	-0.000153	0.00351
54.014	0.072327	0.052338	0.017395	-0.001526	0.00946	-0.093079	0.019836	-0.003662	0.011902	0.076141	-0.25513	0.007019	-0.005951	-0.15076	-0.35797	-0.00946	0.007935	-1.7644	-1.1949	0.042877	0.15976	0.46524	0.052795	-0.3978	0.11673	0.068359	0.028381	-0.058289	-0.75363	0.87036	-0.002289	-0.001373
54.015	0.051117	0.045776	0.020294	-0.015564	0.032043	-0.06134	0.042572	-0.000305	0.006104	0.046692	-0.30472	0.00946	0.057526	-0.10559	0.37994	-0.000458	0.031128	-1.5155	-0.041199	-0.079346	0.0914	0.33676	0.13046	-0.22354	0.093536	0.050507	0.069733	-0.31097	-1.4133	-0.15518	-0.003052	-0.017853
54.016	-0.005035	0.001831	0.015106	0	0.040894	-0.066071	0.037079	0.005493	0.011292	0.006866	-0.40939	0.002136	0.15198	0.086365	0.8313	-0.013733	0.040741	-1.4632	0.97549	-0.19638	-0.1297	0.19653	0.22064	-0.16708	0.040283	-0.03067	0.060577	-1.454	-0.98694	-1.5086	-0.002747	-0.028687
54.017	-0.016174	-0.022125	0.002747	0.00946	0.012207	-0.046997	0.043488	0.003357	0.015411	0.007629	-0.35065	0.009613	0.058899	0.16022	0.45258	-0.008087	0.037384	-1.6605	0.65124	-0.15564	-0.10956	0.21698	0.29495	-0.14511	-0.023499	-0.21347	0.019836	0.47913	-0.22522	-2.1227	-0.002289	-0.035095
54.018	-0.0177	-0.053864	0.007477	0.025635	0.000153	-0.016022	0.063629	0.00061	0.019226	0.051575	-0.27451	0.003967	-0.11078	0.16846	0.24841	-0.010529	0.022278	-1.6544	0.60043	-0.16739	-0.036621	0.18814	0.38361	-0.16739	-0.099182	-0.54672	-0.052185	1.0759	0.5748	-1.6678	-0.001221	-0.034943
54.019	0.007324	-0.085449	0.003357	0.030518	0.005646	0.014954	0.05661	0.006561	0.036774	0.049591	-0.086517	0.002289	-0.26977	0.1564	-0.22492	0.00885	-0.007629	-1.5306	0.99243	-0.13275	0.010681	0.14679	0.37903	-0.15503	-0.056152	-0.40024	-0.083313	0.4216	0.79193	-0.46432	-0.007019	-0.015869
54.02	0.011292	-0.097198	-0.012054	0.011749	0.004578	-0.030823	0.080109	0.008545	0.050812	0.073547	0.38528	0.002594	-0.34943	0.18265	0.32562	-0.002136	-0.028534	-1.3438	0.1033	-0.10788	-0.16312	0.1535	0.20721	-0.054779	0.18249	-0.14038	0.016937	0.13229	0.38513	0.98312	-0.003967	-0.011902
54.021	0.010986	-0.11063	-0.012817	0.023956	-0.004883	-0.065002	0.076141	0.005493	0.063629	0.048828	0.40527	0.006714	-0.23972	0.16495	0.86868	-0.001678	-0.055084	-1.25	-0.18707	-0.047302	-0.29572	0.026855	-0.061798	-0.10269	0.26504	-0.061646	0.095673	0.47913	0.44571	1.6084	-0.003815	-0.015869
54.022	0.008392	-0.15472	-0.021057	0.041351	0.001373	-0.082703	0.076599	0.010223	0.077515	-0.013123	0.029602	0.008392	-0.062256	0.177	-1.0458	0.010986	-0.059814	-1.2628	-0.91309	0.068665	-0.21606	0.000916	-0.25574	-0.044556	0.30136	0.066376	0.057526	0.16113	0.4361	1.3425	-0.000916	-0.011139
54.023	0.006561	-0.16296	-0.004272	0.009918	-0.010681	-0.063782	0.072632	0.007629	0.088654	-0.032349	0.11353	0.002594	0.098877	0.12161	-0.24719	0.009003	-0.033875	-1.3751	-1.1206	0.054169	-0.26367	0.26077	-0.39017	0.16296	0.38391	0.065765	0.019531	-0.12863	0.3627	0.30548	-0.000458	-0.00824
54.024	0.000305	-0.15961	0.018921	-0.000916	-0.002594	-0.08316	0.070801	0.003204	0.097961	-0.051727	0.40131	0.007172	0.095062	0.020294	-0.13947	0.01236	0.016632	-1.3319	0.095978	0.043182	-0.24109	0.24979	-0.13138	0.16739	0.19684	0.059662	0.083618	-0.18341	0.3093	-0.48462	-0.001678	-0.021973
54.025	0.003204	-0.14603	0.019989	-0.013123	0.009308	-0.084686	0.066223	0.001373	0.11093	-0.056915	0.48126	0.00885	0.020447	-0.070343	0.56397	0.024414	0.044708	-1.2473	0.50034	0.069885	0.063477	-0.090027	0.11017	0.077362	0.00473	0.093079	0.12054	0.004272	0.37399	-0.84732	-0.000305	-0.030365
54.026	0.005951	-0.1181	0.016785	-0.004578	0.005188	-0.092926	0.071716	-0.001984	0.11246	-0.000305	0.18906	0.007477	-0.15198	-0.059204	0.027618	-0.000305	0.049744	-1.1855	-0.18036	0.00061	0.25894	-0.21194	0.21393	0.024872	-0.23193	0.072021	0.12009	0.052032	0.24979	-0.76157	-0.001068	-0.03067
